<svg width="20" height="20" viewBox="0 0 20 20" fill="none" xmlns="http://www.w3.org/2000/svg">
<g id="ci:location">
<path id="Vector" d="M10.0001 17.5C8.94753 16.6022 7.97191 15.6179 7.08342 14.5575C5.75008 12.965 4.16675 10.5933 4.16675 8.33333C4.16617 7.17913 4.50801 6.0507 5.14899 5.09085C5.78998 4.131 6.70131 3.38288 7.76764 2.94116C8.83397 2.49944 10.0074 2.38399 11.1393 2.60941C12.2713 2.83482 13.311 3.39098 14.1267 4.2075C14.6699 4.74821 15.1004 5.39128 15.3933 6.09947C15.6863 6.80767 15.8359 7.56694 15.8334 8.33333C15.8334 10.5933 14.2501 12.965 12.9167 14.5575C12.0283 15.6179 11.0526 16.6022 10.0001 17.5ZM10.0001 5.83333C9.33704 5.83333 8.70116 6.09672 8.23231 6.56556C7.76347 7.0344 7.50008 7.67029 7.50008 8.33333C7.50008 8.99637 7.76347 9.63226 8.23231 10.1011C8.70116 10.5699 9.33704 10.8333 10.0001 10.8333C10.6631 10.8333 11.299 10.5699 11.7678 10.1011C12.2367 9.63226 12.5001 8.99637 12.5001 8.33333C12.5001 7.67029 12.2367 7.0344 11.7678 6.56556C11.299 6.09672 10.6631 5.83333 10.0001 5.83333Z" fill="#B59571"/>
</g>
</svg>
