<svg width="20" height="20" viewBox="0 0 20 20" fill="none" xmlns="http://www.w3.org/2000/svg">
<g id="ci:phone">
<path id="Vector" d="M15.8308 16.6667C8.72159 16.6767 3.32576 11.2167 3.33326 4.16918C3.33326 3.70834 3.70659 3.33334 4.16659 3.33334H6.36659C6.77909 3.33334 7.12993 3.63668 7.19076 4.04501C7.33585 5.02422 7.62069 5.97755 8.03659 6.87584L8.12243 7.06084C8.18008 7.18533 8.19249 7.32605 8.1575 7.4587C8.12251 7.59136 8.04232 7.70765 7.93076 7.78751C7.24909 8.27418 6.98909 9.25334 7.51993 10.0167C8.18825 10.9778 9.02238 11.8122 9.98326 12.4808C10.7474 13.0108 11.7266 12.7508 12.2124 12.07C12.2922 11.9581 12.4086 11.8776 12.5414 11.8425C12.6743 11.8073 12.8152 11.8197 12.9399 11.8775L13.1241 11.9625C14.0224 12.3792 14.9758 12.6642 15.9549 12.8092C16.3633 12.87 16.6666 13.2208 16.6666 13.6342V15.8333C16.6666 15.9428 16.645 16.0513 16.6031 16.1524C16.5611 16.2536 16.4997 16.3455 16.4222 16.4229C16.3448 16.5003 16.2528 16.5617 16.1516 16.6035C16.0504 16.6453 15.9419 16.6668 15.8324 16.6667H15.8308Z" fill="#B59571"/>
</g>
</svg>
