<svg width="40" height="40" viewBox="0 0 40 40" fill="none" xmlns="http://www.w3.org/2000/svg">
<g id="gg:menu-left">
<path id="Vector" d="M3.3335 9.99159C3.3335 9.07492 4.07683 8.33325 4.99183 8.33325H18.3418C18.7816 8.33325 19.2035 8.50797 19.5144 8.81897C19.8254 9.12996 20.0002 9.55177 20.0002 9.99159C20.0002 10.4314 19.8254 10.8532 19.5144 11.1642C19.2035 11.4752 18.7816 11.6499 18.3418 11.6499H4.99183C4.55201 11.6499 4.13021 11.4752 3.81921 11.1642C3.50821 10.8532 3.3335 10.4314 3.3335 9.99159ZM3.3335 19.9999C3.3335 19.0833 4.07683 18.3416 4.99183 18.3416H35.0085C35.4483 18.3416 35.8701 18.5163 36.1811 18.8273C36.4921 19.1383 36.6668 19.5601 36.6668 19.9999C36.6668 20.4397 36.4921 20.8615 36.1811 21.1725C35.8701 21.4835 35.4483 21.6583 35.0085 21.6583H4.99183C4.55201 21.6583 4.13021 21.4835 3.81921 21.1725C3.50821 20.8615 3.3335 20.4397 3.3335 19.9999ZM4.99183 28.3499C4.55201 28.3499 4.13021 28.5246 3.81921 28.8356C3.50821 29.1466 3.3335 29.5684 3.3335 30.0083C3.3335 30.4481 3.50821 30.8699 3.81921 31.1809C4.13021 31.4919 4.55201 31.6666 4.99183 31.6666H25.0085C25.4483 31.6666 25.8701 31.4919 26.1811 31.1809C26.4921 30.8699 26.6668 30.4481 26.6668 30.0083C26.6668 29.5684 26.4921 29.1466 26.1811 28.8356C25.8701 28.5246 25.4483 28.3499 25.0085 28.3499H4.99183Z" fill="#B59571"/>
</g>
</svg>
