<svg width="41" height="41" viewBox="0 0 41 41" fill="none" xmlns="http://www.w3.org/2000/svg">
<g id="mastercard-svgrepo-com 1" clip-path="url(#clip0_54_94)">
<g id="Group">
<path id="Vector" d="M10.833 18.7811C10.3584 18.7811 9.95395 18.8778 9.72122 18.9486C9.58749 18.9893 9.49526 19.1055 9.47205 19.2434C9.41904 19.5581 9.74428 19.8391 10.0611 19.8004C10.2044 19.7828 10.3658 19.7712 10.5419 19.7712C10.9491 19.7712 11.2466 19.8166 11.2466 20.1473C11.2466 20.3157 11.1 20.413 10.9319 20.4036C10.8612 20.3996 10.7912 20.3966 10.7409 20.3966C9.79546 20.3966 8.80254 20.7989 8.80254 22.0163C8.80254 22.9752 9.45339 23.194 9.85778 23.194C10.3448 23.194 10.657 22.9947 10.8252 22.8474C10.9112 22.7722 10.9699 22.7965 10.9601 22.9103C10.9508 23.0179 11.0356 23.1105 11.1437 23.1105H11.4787C11.7234 23.1105 11.9309 22.9305 11.9654 22.6882L12.3019 20.3289C12.3235 20.1769 12.3395 20.0227 12.3211 19.8703C12.1943 18.8171 11.195 18.7811 10.833 18.7811ZM10.2933 22.2776C9.9541 22.2776 9.86557 22.0191 9.86557 21.8647C9.86557 21.5659 10.0278 21.2061 10.8287 21.2061C10.9714 21.2066 11.074 21.3301 11.0479 21.4703C10.9883 21.7904 10.7885 22.2776 10.2933 22.2776ZM13.7076 20.1466C13.7076 20.6926 15.01 20.4242 15.01 21.7826C15.01 23.2351 13.6028 23.1714 13.3571 23.1714C13.2597 23.1714 13.1694 23.17 13.0859 23.1674C12.5349 23.1506 12.1932 22.6264 12.2763 22.0814C12.2778 22.0744 12.7367 22.2486 13.2473 22.2486C13.5419 22.2486 13.9244 22.2195 13.9244 21.8683C13.9244 21.3399 12.5561 21.4674 12.5561 20.2153C12.5561 19.1112 13.3762 18.7882 14.185 18.7882C14.3891 18.7882 14.5676 18.7974 14.7153 18.8097C14.9869 18.8324 15.1637 19.0822 15.125 19.352C15.0859 19.6253 14.8407 19.8199 14.5652 19.802C14.4568 19.7949 14.3593 19.7896 14.3089 19.7896C13.9194 19.7904 13.7076 19.8753 13.7076 20.1466ZM16.3018 21.8095C16.2778 21.9589 16.3195 22.1622 16.6998 22.1622C16.8496 22.1622 16.9622 22.2625 16.9404 22.4106L16.8942 22.7244C16.8643 22.9277 16.7196 23.1033 16.5188 23.1465C16.3818 23.176 16.2134 23.2012 16.0256 23.2025C15.5164 23.2075 15.1545 22.9214 15.1545 22.2762C15.1545 21.9142 15.5878 19.3632 15.7446 18.5186C15.7771 18.3434 15.8994 18.2479 16.0775 18.2479H16.569C16.7379 18.2479 16.8659 18.4002 16.8369 18.5666L16.829 18.6115C16.8041 18.7544 16.9141 18.8853 17.0592 18.8853C17.2007 18.8853 17.3097 19.0101 17.2907 19.1503L17.2265 19.6232C17.2039 19.7895 17.0619 19.9136 16.8941 19.9136C16.7295 19.9136 16.5892 20.033 16.5629 20.1955L16.3018 21.8095ZM-nan -nanL20.5185 21.3583C20.5185 21.3583 20.6623 20.6501 20.6623 20.3619C20.6623 19.6416 20.304 18.7634 19.1042 18.7634C18.0051 18.7642 17.1913 19.9483 17.1913 21.2868C17.1913 22.8314 18.2105 23.1983 19.0795 23.1983C19.5311 23.1983 19.8402 23.1412 20.0241 23.0913C20.1594 23.0547 20.2486 22.9375 20.2738 22.7997C20.3387 22.4446 19.97 22.145 19.6137 22.2032C19.4993 22.2219 19.3812 22.2337 19.2657 22.2337C19.0378 22.2337 18.8618 22.2007 18.7263 22.1474C18.1909 21.9371 18.7043 21.3583 19.2795 21.3583H20.5185L-nan -nanZM19.1078 19.7429C19.3032 19.7429 19.4252 19.8125 19.5008 19.9093C19.707 20.1734 19.339 20.4915 19.004 20.4915C18.669 20.4915 18.4081 20.1898 18.6362 19.9445C18.743 19.8297 18.8946 19.7429 19.1078 19.7429ZM8.11841 17.91C8.68176 17.91 9.11048 18.4156 9.01845 18.9714L8.40906 22.6518C8.36477 22.9193 8.13345 23.1154 7.86232 23.1154H7.60524C7.3995 23.1154 7.24248 22.9315 7.27471 22.7283C7.3384 22.3269 6.76605 22.1804 6.62909 22.5631L6.51815 22.8731C6.46614 23.0185 6.32844 23.1154 6.17409 23.1154H6.01689C5.82871 23.1154 5.67486 22.9654 5.67018 22.7772C5.65973 22.3575 5.05168 22.314 4.98152 22.7279L4.96607 22.8191C4.93707 22.9902 4.78885 23.1154 4.61531 23.1154H4.47629C4.15451 23.1154 3.90987 22.8263 3.96314 22.509L4.61308 18.6378C4.6836 18.2177 5.04723 17.91 5.47317 17.91H5.8658C6.12356 17.91 6.33378 18.1166 6.33829 18.3743C6.34758 18.9047 7.08908 19.0197 7.25858 18.5171L7.34422 18.2632C7.41539 18.0521 7.61326 17.91 7.83596 17.91H8.11841ZM22.7286 16.461C22.8862 16.8291 22.6051 17.2245 22.2047 17.2245H18.2478C17.8377 17.2245 17.4962 16.9105 17.6812 16.5445C17.7724 16.3642 18.0245 16.1246 18.2266 16.1246H22.2068C22.433 16.1246 22.6396 16.253 22.7286 16.461ZM21.3643 14.1646C21.654 14.5332 21.3759 15.046 20.907 15.046H19.5352C19.0836 15.046 18.807 14.5543 19.0666 14.1848C19.1722 14.0345 19.3465 13.9469 19.5302 13.9469H20.9085C21.0859 13.9469 21.2547 14.0251 21.3643 14.1646ZM20.1765 28.1084C20.1728 28.1115 20.1674 28.1116 20.1638 28.1083C20.0479 28.0034 19.9352 27.895 19.8255 27.7837C19.5277 27.4817 19.7567 26.9922 20.1809 26.9922C20.6049 26.9922 20.8295 27.4776 20.5287 27.7764C20.4209 27.8836 20.3106 27.9885 20.1982 28.091C20.1979 28.0912 20.1975 28.0913 20.1971 28.0913H20.1959C20.1957 28.0913 20.1956 28.0916 20.1957 28.0918C20.1959 28.092 20.1959 28.0924 20.1957 28.0926C20.1894 28.0978 20.1828 28.1029 20.1765 28.1084ZM22.1669 25.6558C22.0648 25.8311 21.8756 25.9341 21.6728 25.9341H18.6841C18.4802 25.9341 18.2901 25.8303 18.1862 25.6549C17.9656 25.2826 18.2457 24.835 18.6785 24.835H21.6705C22.1016 24.835 22.3838 25.2832 22.1669 25.6558ZM23.0865 18.8336C23.1938 18.8325 23.2508 18.9397 23.2065 19.0374C23.1481 19.1662 23.0918 19.3079 23.036 19.4962C22.9413 19.8162 22.5301 20.043 22.3561 20.3278C22.1062 20.7366 22.0011 21.616 21.8325 22.6623C21.7895 22.9294 21.5578 23.1239 21.2873 23.1239C20.9443 23.1239 20.6827 22.8169 20.7372 22.4782L21.2472 19.3101C21.2865 19.0665 21.4967 18.8874 21.7434 18.8874H22.2292C22.2836 18.8874 22.3252 18.9361 22.3166 18.9899C22.3008 19.0882 22.4781 19.1615 22.5498 19.0925C22.6938 18.954 22.8788 18.8336 23.0865 18.8336ZM25.321 22.1346C25.3351 22.1346 25.3496 22.1342 25.3642 22.1334C25.7412 22.1137 26.1392 22.3876 26.0781 22.7601C26.0484 22.9415 25.9142 23.0885 25.7339 23.1247C25.5342 23.1647 25.2717 23.2082 25.0731 23.2082C23.7685 23.2082 23.1064 22.3081 23.1064 20.9447C23.1064 18.8888 24.3337 17.7939 25.595 17.7939C25.8943 17.7939 26.219 17.8678 26.4597 17.938C26.6773 18.0014 26.8015 18.2199 26.767 18.4439C26.7119 18.8015 26.279 18.9951 25.9227 18.9322C25.8344 18.9166 25.7412 18.9072 25.6446 18.9072C24.901 18.9072 24.2338 19.6168 24.2338 20.9072C24.2338 21.5425 24.5448 22.1346 25.321 22.1346ZM35.9909 22.5127C35.9378 22.5411 35.8967 22.5821 35.867 22.636C35.8372 22.6891 35.8224 22.7443 35.8224 22.8017C35.8224 22.8591 35.8372 22.9136 35.867 22.966C35.896 23.0184 35.9371 23.0602 35.9895 23.0899C36.0426 23.119 36.0972 23.1338 36.1538 23.1338C36.2119 23.1338 36.2671 23.119 36.3188 23.0899C36.3712 23.0602 36.4123 23.0184 36.4413 22.966C36.4718 22.9136 36.4853 22.8591 36.4853 22.8017C36.4853 22.7436 36.4711 22.6884 36.4413 22.636C36.4123 22.5821 36.3698 22.5411 36.3167 22.5127C36.2643 22.4837 36.2105 22.4695 36.1538 22.4695C36.0993 22.4695 36.0448 22.4837 35.9909 22.5127ZM36.3939 22.6622C36.4187 22.7068 36.4321 22.7528 36.4321 22.8003C36.4321 22.8477 36.4201 22.8945 36.3953 22.9377C36.3712 22.9816 36.3372 23.0149 36.2926 23.0411C36.2487 23.0651 36.2034 23.0779 36.1559 23.0779C36.1078 23.0779 36.0617 23.0651 36.0185 23.0411C35.9739 23.0163 35.9406 22.9823 35.9151 22.9377C35.8896 22.893 35.8783 22.8477 35.8783 22.8003C35.8783 22.7528 35.8904 22.7068 35.9166 22.6622C35.9414 22.6183 35.9746 22.5843 36.02 22.5595C36.0653 22.5347 36.1099 22.5241 36.1559 22.5241C36.202 22.5241 36.2473 22.5361 36.2905 22.5595C36.3358 22.5843 36.3691 22.6176 36.3939 22.6622ZM31.9562 21.4044C31.9562 22.3003 32.4017 23.1778 33.311 23.1778C33.6667 23.1778 33.9361 23.0431 34.1081 22.9201C34.1771 22.8707 34.303 22.9326 34.2928 23.0169C34.2867 23.067 34.3258 23.1112 34.3763 23.1112H34.8871C35.1506 23.1112 35.3751 22.9199 35.4169 22.6598L36.079 18.5419C36.132 18.2125 35.8772 17.9142 35.5437 17.9148L35.4694 17.915C35.247 17.9154 35.0577 18.077 35.0223 18.2965C34.9579 18.6957 34.3373 18.872 33.9365 18.819C33.89 18.8128 33.842 18.8095 33.7926 18.8095C32.7905 18.8102 31.9562 20.0177 31.9562 21.4044ZM34.5752 20.7677C34.5752 21.3449 34.2898 22.1161 33.6977 22.1161C33.304 22.1161 33.1198 21.7861 33.1198 21.2677C33.1198 20.42 33.5001 19.8612 33.981 19.8612C34.3734 19.8619 34.5752 20.1317 34.5752 20.7677ZM36.3535 26.2415C36.3484 26.2368 36.3516 26.2182 36.3581 26.2158C36.3734 26.2103 36.3866 26.2017 36.3974 26.1905C36.4151 26.1714 36.4251 26.1487 36.4251 26.1225C36.4251 26.1041 36.4194 26.0864 36.4088 26.0701C36.3982 26.0538 36.3826 26.0418 36.3634 26.0354C36.3457 26.0283 36.3153 26.0248 36.2735 26.0248C36.2054 26.0248 36.1503 26.0799 36.1503 26.148V26.3534C36.1503 26.3694 36.1633 26.3824 36.1793 26.3824C36.1953 26.3824 36.2083 26.3694 36.2083 26.3534V26.2634C36.2083 26.2451 36.2233 26.2302 36.2416 26.2302C36.2615 26.2302 36.2778 26.2344 36.287 26.2429C36.3018 26.2549 36.3231 26.2826 36.3479 26.3258L36.3705 26.367C36.3758 26.3765 36.3858 26.3824 36.3967 26.3824C36.4201 26.3824 36.4344 26.3566 36.422 26.3368L36.4066 26.3123C36.3854 26.2797 36.3677 26.2564 36.3535 26.2415ZM36.2778 26.182H36.2608C36.231 26.182 36.2069 26.1579 36.2069 26.1282C36.2069 26.0984 36.231 26.0744 36.2608 26.0744H36.2735C36.3011 26.0744 36.3195 26.0765 36.3302 26.0807C36.3415 26.085 36.3486 26.0913 36.3549 26.0991C36.3606 26.1076 36.3634 26.1168 36.3634 26.1268C36.3634 26.143 36.3578 26.1572 36.3457 26.1671C36.3337 26.177 36.3103 26.182 36.2778 26.182ZM39.1439 7.53894H1.20339C0.633985 7.53894 0.173645 7.99999 0.173645 8.56869V32.432C0.173645 33.0007 0.633985 33.4617 1.20339 33.4617H39.1439C39.7133 33.4617 40.1736 33.0007 40.1736 32.432V8.56869C40.1736 7.99999 39.7133 7.53894 39.1439 7.53894ZM36.5823 26.3633C36.5525 26.4171 36.5122 26.4582 36.4598 26.4872C36.4074 26.5163 36.3521 26.5312 36.2955 26.5312C36.2374 26.5312 36.1821 26.5163 36.1297 26.4872C36.078 26.4582 36.037 26.4171 36.0065 26.3633C35.9775 26.3116 35.9626 26.2564 35.9626 26.199C35.9626 26.1416 35.9775 26.0871 36.0072 26.0333C36.0363 25.9795 36.0787 25.9391 36.1312 25.91C36.1843 25.8824 36.2381 25.8676 36.2948 25.8676C36.3507 25.8676 36.4045 25.8824 36.4569 25.91C36.51 25.9391 36.5518 25.9795 36.5809 26.0333C36.6106 26.0871 36.6248 26.1423 36.6248 26.199C36.6248 26.2557 36.612 26.3123 36.5823 26.3633ZM37.3245 20.5007C37.3259 26.17 32.7324 30.7677 27.0625 30.7691C22.78 30.7703 17.5723 30.7663 13.2898 30.7663C7.62336 30.7663 3.02421 26.1678 3.02421 20.5007C3.02421 14.8562 7.58724 10.2712 13.2239 10.2344C13.2459 10.2344 13.2678 10.2344 13.2898 10.2344C17.5731 10.2344 22.7742 10.2334 27.0575 10.2323C32.7257 10.2302 37.3216 14.8229 37.3259 20.4904C37.3259 20.4938 37.3245 20.4973 37.3245 20.5007ZM36.134 22.6275C36.0651 22.6275 36.0093 22.6833 36.0093 22.7521V22.9554C36.0093 22.9714 36.0223 22.9844 36.0384 22.9844C36.0544 22.9844 36.0674 22.9714 36.0674 22.9554V22.8661C36.0674 22.8478 36.0823 22.8329 36.1007 22.8329C36.1212 22.8329 36.1375 22.8371 36.1474 22.8449C36.1623 22.8576 36.1821 22.8845 36.2083 22.9292L36.2303 22.9696C36.2356 22.9791 36.2456 22.9851 36.2565 22.9851C36.2799 22.9851 36.2942 22.9593 36.2818 22.9395L36.2664 22.915C36.2459 22.8817 36.2275 22.8583 36.214 22.8442C36.2083 22.8389 36.2113 22.8212 36.2186 22.8184C36.2335 22.8129 36.2465 22.8044 36.2572 22.7932C36.2749 22.7748 36.2855 22.7507 36.2855 22.7252C36.2855 22.7075 36.2799 22.6891 36.2685 22.6728C36.2572 22.6572 36.2423 22.6452 36.2246 22.6381C36.2069 22.631 36.1758 22.6275 36.134 22.6275ZM36.2154 22.7004C36.2218 22.7096 36.2246 22.7174 36.2246 22.7295C36.2246 22.745 36.2183 22.7585 36.2076 22.7684C36.1942 22.779 36.1722 22.7833 36.1389 22.7833H36.1227C36.0929 22.7833 36.0688 22.7592 36.0688 22.7295C36.0688 22.6997 36.0929 22.6756 36.1227 22.6756H36.134C36.1447 22.6756 36.1539 22.6759 36.1619 22.6765C36.1822 22.6779 36.2048 22.6831 36.2154 22.7004ZM28.5511 18.7811C28.0755 18.7811 27.671 18.8778 27.4384 18.9486C27.3048 18.9893 27.2126 19.1054 27.1894 19.2431C27.1361 19.5579 27.4613 19.8391 27.7782 19.8003C27.9214 19.7828 28.0827 19.7712 28.2586 19.7712C28.6659 19.7712 28.964 19.8166 28.964 20.1473C28.964 20.3163 28.8163 20.413 28.6476 20.4035C28.577 20.3996 28.5069 20.3966 28.4562 20.3966C27.5115 20.3966 26.5193 20.7989 26.5193 22.0163C26.5193 22.9752 27.1708 23.194 27.5745 23.194C28.0616 23.194 28.3737 22.9943 28.542 22.8469C28.6279 22.7717 28.6866 22.7962 28.6768 22.91C28.6675 23.0178 28.7525 23.1105 28.8607 23.1105H29.195C29.4396 23.1105 29.6469 22.9306 29.6814 22.6885L30.0504 20.1006C30.0525 18.8222 28.9378 18.7811 28.5511 18.7811ZM28.0129 22.2776C27.6729 22.2776 27.5851 22.0191 27.5851 21.8647C27.5851 21.5659 27.7473 21.2061 28.5483 21.2061C28.6907 21.2066 28.7932 21.3303 28.767 21.4703C28.7069 21.7904 28.507 22.2776 28.0129 22.2776ZM32.2129 19.4968C32.1179 19.8163 31.7072 20.0419 31.5332 20.3262C31.2833 20.7346 31.1784 21.6144 31.0091 22.6619C30.9659 22.9288 30.7343 23.1232 30.4638 23.1232C30.1207 23.1232 29.8591 22.8161 29.9136 22.4773L30.4235 19.3099C30.4628 19.066 30.6733 18.8867 30.9204 18.8867H31.4058C31.4605 18.8867 31.5023 18.9356 31.4937 18.9896C31.478 19.0883 31.6554 19.1616 31.7274 19.0923C31.8717 18.9536 32.057 18.8328 32.265 18.8328C32.3719 18.8328 32.4286 18.9401 32.3843 19.0374C32.3256 19.1663 32.269 19.3081 32.2129 19.4968Z" fill="white"/>
</g>
</g>
<defs>
<clipPath id="clip0_54_94">
<rect width="40" height="40" fill="white" transform="translate(0.173645 0.5)"/>
</clipPath>
</defs>
</svg>
