<svg width="26" height="26" viewBox="0 0 26 26" fill="none" xmlns="http://www.w3.org/2000/svg">
<g id="mdi:account">
<path id="Vector" d="M13 4.33325C14.1493 4.33325 15.2515 4.7898 16.0641 5.60246C16.8768 6.41511 17.3333 7.51731 17.3333 8.66659C17.3333 9.81586 16.8768 10.9181 16.0641 11.7307C15.2515 12.5434 14.1493 12.9999 13 12.9999C11.8507 12.9999 10.7485 12.5434 9.93588 11.7307C9.12322 10.9181 8.66668 9.81586 8.66668 8.66659C8.66668 7.51731 9.12322 6.41511 9.93588 5.60246C10.7485 4.7898 11.8507 4.33325 13 4.33325ZM13 15.1666C17.7883 15.1666 21.6667 17.1058 21.6667 19.4999V21.6666H4.33334V19.4999C4.33334 17.1058 8.21168 15.1666 13 15.1666Z" fill="#333333"/>
</g>
</svg>
