<svg width="41" height="27" viewBox="0 0 41 27" fill="none" xmlns="http://www.w3.org/2000/svg">
<g id="mir-svgrepo-com 1" clip-path="url(#clip0_54_85)">
<path id="Vector" d="M2.22493 0.679504H38.1224C39.2557 0.679504 40.1736 1.59745 40.1736 2.73079V24.2692C40.1736 25.4026 39.2557 26.3205 38.1224 26.3205H2.22493C1.09159 26.3205 0.173645 25.4026 0.173645 24.2692V2.73079C0.173645 1.59745 1.09159 0.679504 2.22493 0.679504Z" fill="white"/>
<g id="Page-1">
<g id="Artboard">
<g id="Group">
<path id="Combined-Shape" d="M28.0762 13.0128V18.5513H31.1532V15.2692H34.6403C36.107 15.259 37.3532 14.3205 37.825 13.0128H28.0762Z" fill="#333333"/>
<path id="Combined-Shape_1_" d="M27.666 8.44873C27.8454 10.7103 29.989 12.5 32.6044 12.5C32.6147 12.5 37.9531 12.5 37.9531 12.5C37.9942 12.2949 38.0147 12.0795 38.0147 11.859C38.0147 9.98206 36.5019 8.46412 34.6301 8.44873H27.666Z" fill="#333333"/>
<path id="Combined-Shape_2_" d="M23.1121 12.4436V12.4385V12.4436C23.148 12.3821 23.2044 12.3462 23.2762 12.3462C23.3788 12.3462 23.4557 12.4282 23.4609 12.5257V18.5H26.5378V8.44873H23.4609C23.0711 8.46412 22.6301 8.74617 22.466 9.10001L20.0198 14.3513C20.0147 14.3718 20.0044 14.3923 19.9942 14.4128C19.9583 14.4641 19.8968 14.5 19.825 14.5C19.7121 14.5 19.6198 14.4077 19.6198 14.2949V8.44873H16.5429V18.5H19.6198C20.0044 18.4795 20.4352 18.1974 20.5993 17.8487L23.1121 12.459C23.107 12.4539 23.1121 12.4487 23.1121 12.4436Z" fill="#333333"/>
<path id="Combined-Shape_3_" d="M11.6249 12.618L9.82495 18.5H7.60956L5.81469 12.6128C5.79931 12.5205 5.71726 12.4487 5.61469 12.4487C5.50187 12.4487 5.41469 12.541 5.41469 12.6487V18.4949H2.33777V8.4436H4.97879H5.76341C6.32751 8.4436 6.92238 8.88463 7.08649 9.42309L8.58392 14.3205C8.66085 14.5667 8.77879 14.5616 8.85572 14.3205L10.3532 9.42309C10.5173 8.8795 11.1121 8.4436 11.6762 8.4436H12.4608H15.1019V18.4949H12.0249V12.6487C12.0249 12.6487 12.0249 12.6487 12.0249 12.6436C12.0249 12.5308 11.9326 12.4436 11.8249 12.4436C11.7224 12.4487 11.6403 12.5205 11.6249 12.618Z" fill="#333333"/>
</g>
</g>
</g>
</g>
<defs>
<clipPath id="clip0_54_85">
<rect width="40" height="25.641" fill="white" transform="translate(0.173645 0.679504)"/>
</clipPath>
</defs>
</svg>
