<svg width="41" height="41" viewBox="0 0 41 41" fill="none" xmlns="http://www.w3.org/2000/svg">
<g id="visa-svgrepo-com 1" clip-path="url(#clip0_54_83)">
<path id="Vector" d="M37.507 33.8334H2.84031C1.36809 33.8334 0.173645 32.6389 0.173645 31.1667V9.83335C0.173645 8.36113 1.36809 7.16669 2.84031 7.16669H37.507C38.9792 7.16669 40.1736 8.36113 40.1736 9.83335V31.1667C40.1736 32.6389 38.9792 33.8334 37.507 33.8334ZM19.9959 23.5689L19.597 26.0689C20.4748 26.4445 21.4959 26.6634 22.5681 26.6634C22.6536 26.6634 22.7381 26.6622 22.8225 26.6589H22.8103C22.9081 26.6645 23.0214 26.6678 23.137 26.6678C24.3692 26.6678 25.5114 26.2811 26.4492 25.6222L26.4303 25.6345C27.2814 25.0034 27.8281 24.0022 27.8281 22.8734C27.8281 22.8678 27.8281 22.8622 27.8281 22.8567V22.8578C27.8281 21.6356 27.0103 20.62 25.3981 19.8356C24.9248 19.6045 24.5203 19.3622 24.1403 19.0889L24.1659 19.1067C23.9459 18.9622 23.7992 18.7234 23.7848 18.4489V18.4467C23.8025 18.1578 23.9681 17.9111 24.2059 17.78L24.2103 17.7778C24.5236 17.5956 24.8992 17.4878 25.3014 17.4878C25.3481 17.4878 25.3948 17.4889 25.4414 17.4922H25.4348H25.5236C25.5492 17.4922 25.5792 17.4911 25.6092 17.4911C26.3248 17.4911 27.0036 17.6456 27.6159 17.9222L27.5848 17.91L27.8448 18.0489L28.2436 15.6367C27.4936 15.34 26.6236 15.1678 25.7136 15.1678C25.6959 15.1678 25.677 15.1678 25.6592 15.1678H25.6625C25.5914 15.1645 25.5081 15.1622 25.4248 15.1622C24.207 15.1622 23.0781 15.5478 22.1548 16.2034L22.1725 16.1911C21.337 16.7867 20.7981 17.7511 20.7981 18.8422V18.8478C20.787 20.0234 21.6336 21.0389 23.3159 21.87C23.7603 22.0645 24.1436 22.3022 24.487 22.5878L24.4792 22.5811C24.6736 22.7456 24.7992 22.9867 24.8092 23.2567V23.2589V23.2611C24.8092 23.6156 24.5981 23.92 24.2936 24.0567L24.2881 24.0589C23.9548 24.2345 23.5592 24.3367 23.1392 24.3367C23.1225 24.3367 23.1048 24.3367 23.0881 24.3367H23.0903C23.0659 24.3367 23.0359 24.3367 23.007 24.3367C22.0548 24.3367 21.1525 24.1256 20.3436 23.7478L20.3825 23.7645L20.0014 23.5734L19.9959 23.5689ZM31.2459 24.8367H34.9292C34.9885 25.0908 35.1044 25.6463 35.277 26.5034H37.9514L35.6248 15.3578H33.4025C33.3636 15.3545 33.3181 15.3522 33.2714 15.3522C32.647 15.3522 32.1125 15.7389 31.8948 16.2856L31.8914 16.2956L27.6248 26.5034H30.647L31.2536 24.8378L31.2459 24.8367ZM16.7192 15.3578L14.9125 26.5034H17.7948L19.6003 15.3578H16.7192ZM5.64253 17.6322L7.98698 26.4856H11.0248L15.5525 15.3578H12.5014L9.68587 22.9622L9.39031 21.4167L8.38587 16.2956C8.28476 15.7522 7.81476 15.3456 7.2492 15.3456C7.19142 15.3456 7.13365 15.35 7.07809 15.3578L7.08476 15.3567H2.43253L2.39809 15.5822C5.98031 16.4922 8.33365 18.4556 9.39365 21.4156C9.05031 20.5356 8.5492 19.7856 7.92031 19.1667L7.9192 19.1656C7.2892 18.5189 6.53253 18 5.6892 17.6456L5.64476 17.6289L5.64253 17.6322ZM34.4614 22.5445H32.0614C32.2236 22.1163 32.6059 21.0793 33.2081 19.4334L33.2592 19.2767C33.3059 19.1611 33.3636 19.01 33.437 18.8256C33.5103 18.6411 33.5592 18.49 33.5925 18.3745L33.8014 19.3289L34.4603 22.54L34.4614 22.5445Z" fill="white"/>
</g>
<defs>
<clipPath id="clip0_54_83">
<rect width="40" height="40" fill="white" transform="translate(0.173645 0.5)"/>
</clipPath>
</defs>
</svg>
