<svg width="40" height="40" viewBox="0 0 40 40" fill="none" xmlns="http://www.w3.org/2000/svg">
<g id="soc-icons">
<path id="Vector" d="M36.6146 11.475C36.898 12.2409 36.0275 14.028 34.0031 16.8363C33.7197 17.2192 33.3553 17.7298 32.91 18.3681C31.9787 19.5594 31.4524 20.3466 31.3309 20.7295C31.1285 21.2401 31.2095 21.7295 31.5739 22.1975C31.7763 22.4528 32.2419 22.9634 32.9707 23.7293H33.0314V23.7931C34.6914 25.3674 35.8049 26.7077 36.3717 27.814L36.4932 28.0693L36.6146 28.548V29.1543L36.1895 29.633L35.1571 29.8564L30.7236 29.984C30.4402 30.0266 30.1062 29.984 29.7215 29.8564C29.3369 29.7287 29.0434 29.6011 28.8409 29.4735L28.4765 29.2182C28.1121 28.9629 27.7073 28.5799 27.2619 28.0693C26.8165 27.5587 26.4218 27.0907 26.0776 26.6652C25.7335 26.2397 25.3792 25.8887 25.0148 25.6121C24.6504 25.3355 24.3265 25.2398 24.0431 25.3249C24.0026 25.3249 23.952 25.3462 23.8913 25.3887C23.8305 25.4313 23.7293 25.527 23.5876 25.6759C23.4459 25.8248 23.3244 26.0057 23.2232 26.2184C23.122 26.4312 23.0309 26.7397 22.9499 27.1439C22.8689 27.5481 22.8285 28.0268 22.8285 28.5799C22.8285 28.7501 22.8082 28.9097 22.7677 29.0586C22.7272 29.2075 22.6868 29.3245 22.6463 29.4096L22.5855 29.4735C22.3426 29.7287 22.0187 29.8564 21.6138 29.8564H19.6704C18.8202 29.9415 17.9598 29.8564 17.0893 29.6011C16.2188 29.3458 15.4596 29.016 14.8118 28.6118C14.164 28.2076 13.577 27.8034 13.0506 27.3992C12.5243 26.9949 12.1194 26.6439 11.836 26.3461L11.4108 25.8993C11.2894 25.8142 11.1274 25.644 10.925 25.3887C10.7226 25.1334 10.3076 24.5803 9.67999 23.7293C9.05242 22.8783 8.43498 21.9635 7.82766 20.9848C7.22034 20.0062 6.5118 18.7191 5.70204 17.1235C4.89228 15.5279 4.14326 13.8791 3.45496 12.1771C3.37398 11.9644 3.3335 11.7942 3.3335 11.6665C3.3335 11.5389 3.35374 11.4325 3.39423 11.3474L3.45496 11.2836C3.61691 11.0283 3.94082 10.9006 4.42667 10.9006H9.2245C9.34596 10.9006 9.46743 10.9325 9.58889 10.9964L9.89255 11.1559L9.95328 11.2198C10.1557 11.3474 10.2974 11.5389 10.3784 11.7942C10.6213 12.3899 10.8946 13.0175 11.1983 13.677C11.5019 14.3365 11.7348 14.8365 11.8967 15.1768L12.1396 15.6874C12.504 16.4108 12.8381 17.0384 13.1417 17.5703C13.4454 18.1021 13.7187 18.517 13.9616 18.8148C14.2045 19.1127 14.4474 19.3467 14.6904 19.5169C14.9333 19.6871 15.1357 19.7722 15.2977 19.7722C15.4596 19.7722 15.6216 19.7509 15.7836 19.7084L15.8443 19.6126L16.0568 19.1978L16.2998 18.3681L16.4516 16.9001V14.6024C16.4111 14.1344 16.3504 13.6983 16.2694 13.294C16.1884 12.8898 16.1075 12.6026 16.0265 12.4324L15.9657 12.2409C15.6823 11.8154 15.1762 11.5389 14.4474 11.4112C14.326 11.4112 14.3665 11.2623 14.5689 10.9645C14.7714 10.7517 14.994 10.5815 15.237 10.4539C15.8443 10.1135 17.2209 9.96454 19.3667 10.0071C20.298 10.0071 21.0875 10.0922 21.7353 10.2624C21.9377 10.3049 22.1199 10.3794 22.2819 10.4858C22.4438 10.5921 22.5653 10.7411 22.6463 10.9325C22.7272 11.124 22.788 11.3155 22.8285 11.507C22.8689 11.6984 22.8892 11.975 22.8892 12.3367V13.3259C22.8487 13.6663 22.8285 14.0918 22.8285 14.6024V16.1342C22.8285 16.2619 22.8183 16.5172 22.7981 16.9001C22.7779 17.283 22.7677 17.5809 22.7677 17.7936C22.7677 18.0064 22.788 18.251 22.8285 18.5276C22.8689 18.8042 22.9398 19.0382 23.041 19.2297C23.1422 19.4212 23.2738 19.5594 23.4358 19.6445C23.5168 19.6871 23.6079 19.719 23.7091 19.7403C23.8103 19.7615 23.9621 19.6977 24.1646 19.5488C24.367 19.3999 24.5897 19.1871 24.8326 18.9106C25.0755 18.634 25.3792 18.2191 25.7436 17.666C26.108 17.1128 26.4926 16.4746 26.8975 15.7513C27.5858 14.4748 28.2134 13.0919 28.7802 11.6027C28.8207 11.5176 28.8713 11.4219 28.932 11.3155C28.9928 11.2091 29.0636 11.1347 29.1446 11.0921H29.2053L29.2661 11.0283L29.509 10.9645H29.8734L34.8534 10.9006C35.2988 10.8581 35.6733 10.8794 35.9769 10.9645C36.2806 11.0496 36.4527 11.1559 36.4932 11.2836L36.6146 11.475Z" fill="#B59571"/>
</g>
</svg>
