<svg width="40" height="40" viewBox="0 0 40 40" fill="none" xmlns="http://www.w3.org/2000/svg">
<g id="soc-icons">
<g id="Group">
<g id="Group_2">
<path id="Vector" d="M35.9686 12.3728C35.7799 11.6997 35.4124 11.0902 34.905 10.6093C34.3833 10.1136 33.7439 9.759 33.0471 9.57899C30.4394 8.89165 19.9918 8.89165 19.9918 8.89165C15.6363 8.8421 11.2819 9.06005 6.95311 9.54428C6.25632 9.73759 5.61809 10.1001 5.09521 10.5996C4.58144 11.0939 4.2093 11.7035 4.0149 12.3714C3.54792 14.8871 3.32103 17.4415 3.33728 20.0002C3.32062 22.5566 3.54696 25.1101 4.0149 27.629C4.20514 28.2941 4.57589 28.9009 5.09104 29.3911C5.6062 29.8813 6.24772 30.2353 6.95311 30.4228C9.59556 31.1088 19.9918 31.1087 19.9918 31.1087C24.3528 31.1584 28.7128 30.9404 33.0471 30.4561C33.7439 30.2761 34.3833 29.9215 34.905 29.4258C35.4188 28.9356 35.784 28.3261 35.9673 27.6623C36.4464 25.1476 36.6794 22.5921 36.6629 20.0321C36.699 17.4613 36.4663 14.8938 35.9686 12.3714V12.3728ZM16.6703 24.7547V15.2471L25.3628 20.0016L16.6703 24.7547Z" fill="#B59571"/>
</g>
</g>
</g>
</svg>
